<svg width="16" height="16" viewBox="0 0 16 16" fill="none" xmlns="http://www.w3.org/2000/svg">
  <g clip-path="url(#clip0_11_75)">
    <path
      d="M12.5 2.50002C12.4 2.50002 12.3062 2.51252 12.2219 2.54064C11.625 2.71252 10.7812 2.87189 9.9 2.64377C8.10625 2.17814 6.00625 2.87502 4.44062 4.44064C2.875 6.00627 2.17812 8.10627 2.64375 9.90002C2.87187 10.7813 2.7125 11.625 2.54062 12.2219C2.51562 12.3094 2.5 12.4031 2.5 12.5C2.5 13.0531 2.94687 13.5 3.5 13.5C3.6 13.5 3.69375 13.4875 3.77812 13.4594C4.375 13.2875 5.21875 13.125 6.1 13.3563C7.89375 13.8219 9.99375 13.125 11.5594 11.5594C13.125 9.99377 13.8219 7.89377 13.3562 6.10002C13.1281 5.21877 13.2875 4.37502 13.4594 3.77814C13.4844 3.69064 13.5 3.59689 13.5 3.50002C13.5 2.94689 13.0531 2.50002 12.5 2.50002ZM12.5 1.00002C13.8812 1.00002 15 2.11877 15 3.50002C15 3.74064 14.9656 3.97502 14.9031 4.19689C14.7594 4.69064 14.6812 5.22502 14.8094 5.72502C15.4375 8.15002 14.4687 10.7719 12.6219 12.6219C10.775 14.4719 8.15 15.4406 5.725 14.8094C5.225 14.6813 4.69375 14.7594 4.19687 14.9031C3.975 14.9656 3.74062 15 3.5 15C2.11875 15 0.999999 13.8813 0.999999 12.5C0.999999 12.2594 1.03437 12.025 1.09687 11.8031C1.24062 11.3094 1.31875 10.775 1.19062 10.275C0.562499 7.85314 1.53125 5.22814 3.38125 3.38127C5.23125 1.53439 7.85312 0.562518 10.275 1.19064C10.775 1.31877 11.3062 1.24064 11.8031 1.09689C12.025 1.03439 12.2594 1.00002 12.5 1.00002ZM8.70937 5.21877C7.08437 5.69377 5.69375 7.08439 5.21875 8.70939C5.10312 9.10627 4.68437 9.33439 4.2875 9.21877C3.89062 9.10314 3.6625 8.68439 3.77812 8.28752C4.39687 6.17189 6.17187 4.39689 8.2875 3.77814C8.68437 3.66252 9.10312 3.89064 9.21875 4.28752C9.33437 4.68439 9.10625 5.10314 8.70937 5.21877Z"
      fill="white" />
  </g>
  <defs>
    <clipPath id="clip0_11_75">
      <rect width="14" height="16" fill="white" transform="translate(1)" />
    </clipPath>
  </defs>
</svg>