<svg width="16" height="16" viewBox="0 0 16 16" fill="none" xmlns="http://www.w3.org/2000/svg">
  <rect x="1" y="5" width="2.06073" height="1.00789" fill="white" />
  <rect x="1" y="6.67981" width="2.06073" height="1.00789" fill="white" />
  <rect x="1" y="8.35962" width="2.06073" height="1.00789" fill="white" />
  <rect x="3.88507" y="8.35962" width="2.06073" height="1.00789" fill="white" />
  <rect x="3.88507" y="6.67981" width="2.06073" height="1.00789" fill="white" />
  <rect x="5.12146" y="5" width="2.06073" height="1.00789" fill="white" />
  <rect x="5.12146" y="10.0395" width="2.06073" height="1.00789" fill="white" />
  <rect x="1" y="10.0395" width="2.06073" height="1.00789" fill="white" />
  <rect x="8.40552" y="5" width="2.06073" height="1.00789" fill="white" />
  <rect x="8.40552" y="6.67981" width="2.06073" height="1.00789" fill="white" />
  <rect x="8.40552" y="6.67981" width="2.06073" height="1.00789" fill="white" />
  <rect x="9.22992" y="8.35962" width="2.06073" height="1.00789" fill="white" />
  <rect x="10.4662" y="10.0395" width="2.06073" height="1.00789" fill="white" />
  <rect x="12.1148" y="8.35962" width="2.06073" height="1.00789" fill="white" />
  <rect x="12.9393" y="6.67981" width="2.06073" height="1.00789" fill="white" />
  <rect x="12.9393" y="5" width="2.06073" height="1.00789" fill="white" />
</svg>